# xmcd
#
# Track frame offsets: 
#        150
#        8020
#        18450
#        33375
#        45295
#        58800
#        74550
#        87600
#        103285
#        115495
#        129900
#        145908
#        154345
#        171900
#        182020
#        195983
#        205345
#        219150
#        233100
#        245470
#        257545
#        276483
#
# Disc length: 3772 seconds
#
# Revision: 2
# Processed by: cddbd v1.5.2PL0 Copyright (c) Steve Scherf et al.
# Submitted via: ExactAudioCopy v0.95b4
#
DISCID=400eba16
DTITLE=Riders in the Sky - Best of the West
DYEAR=1987
DGENRE=Cowboy
TTITLE0=Cowboy Jubilee
TTITLE1=That's How the Yodel Was Born
TTITLE2=Ghost Riders in the Sky
TTITLE3=Don't Fence Me In
TTITLE4=Ol' Cowpoke
TTITLE5=Wasteland
TTITLE6=Blue Bonnet Lady
TTITLE7=Blue Montana Skies
TTITLE8=After You've Gone
TTITLE9=Here Comes the Santa Fe
TTITLE10=Tumbling Tumbleweeds
TTITLE11=La Cucaracha
TTITLE12=Soon as the Roundup's Through
TTITLE13=I Ride an Old Paint
TTITLE14=Riding Alone
TTITLE15=Hold That Critter Down
TTITLE16=Ride with the Wind
TTITLE17=Cowboy Song
TTITLE18=Prairie Serenade
TTITLE19=Nevada
TTITLE20=Home on the Range
TTITLE21=So Long Saddle Pals
EXTD="Ranger Doug" Green: vocals, rhythm guitar\nFred "Too Slim" LaBou
EXTD=r: vocals, string bass, rhythm guitar, accordion (downwind]\n"Woo
EXTD=dy Paul" Chrisman: vocals, fiddle, guitar, banjo, gut-string guit
EXTD=ar, harmonica, mandolin, accordion (upwind]\nAdditional personnel
EXTD=varies.\nTracks 3,4,7,8,10,18,22 originally released on "Three o
EXTD=n the Trail" (Rounder 0102, 1980).\nTracks 1,5,13,15,17 originall
EXTD=y released on "Cowboy Jubilee" (Rounder 0147, 1981).\nTracks 14,1
EXTD=9,20,21 originally released on "Prairie Serenade" (Rounder 0170, 
EXTD=1982).\nTracks 2,6,11,12 originally released on "Weeds and Water"
EXTD=(Rounder 1038, 1983).\nTracks 9,16 recorded live at the Birchmer
EXTD=e, Alexandria US-VA, 1983-03, and originally released on "Live" (
EXTD=Rounder 0186, 1984).\nCD: Rounder Records CD 11517 (1987, 1990-10
EXTD=25), UPC 011661151727.
EXTT0=
EXTT1=
EXTT2=
EXTT3=
EXTT4=
EXTT5=
EXTT6=
EXTT7=
EXTT8=
EXTT9=
EXTT10=
EXTT11=
EXTT12=
EXTT13=
EXTT14=
EXTT15=
EXTT16=
EXTT17=
EXTT18=
EXTT19=
EXTT20=
EXTT21=
PLAYORDER=
